<?xml version="1.0" standalone="no"?>
<!DOCTYPE svg PUBLIC "-//W3C//DTD SVG 20010904//EN"
 "http://www.w3.org/TR/2001/REC-SVG-20010904/DTD/svg10.dtd">
<svg version="1.0" xmlns="http://www.w3.org/2000/svg"
 width="1280.000000pt" height="1280.000000pt" viewBox="0 0 1280.000000 1280.000000"
 preserveAspectRatio="xMidYMid meet">
<metadata>
Created by potrace 1.11, written by Peter Selinger 2001-2013
</metadata>
<g transform="translate(0.000000,1280.000000) scale(0.100000,-0.100000)"
fill="#000000" stroke="none">
<path d="M5965 12794 c-22 -2 -103 -8 -180 -14 -540 -41 -1221 -203 -1746
-414 -258 -104 -367 -153 -584 -265 -231 -119 -340 -184 -600 -356 -429 -284
-709 -521 -1116 -946 -302 -314 -450 -499 -693 -867 -181 -274 -260 -411 -396
-687 -270 -547 -445 -1074 -555 -1674 -72 -395 -95 -674 -95 -1171 0 -497 23
-777 95 -1171 111 -602 284 -1126 555 -1674 136 -276 215 -413 396 -687 241
-364 414 -580 715 -892 391 -405 674 -643 1094 -921 260 -172 369 -237 600
-356 725 -374 1517 -605 2330 -681 191 -18 1039 -18 1230 0 920 86 1857 386
2626 842 152 91 512 332 634 425 421 321 931 830 1239 1238 125 165 361 523
466 706 160 279 343 678 464 1013 138 382 263 911 316 1337 33 267 43 533 37
961 -7 478 -22 648 -93 1035 -109 597 -284 1124 -554 1670 -136 276 -215 413
-396 687 -243 368 -391 553 -693 867 -407 425 -687 662 -1116 946 -260 172
-369 237 -600 356 -621 320 -1274 531 -1976 638 -293 45 -426 53 -904 56 -253
1 -478 1 -500 -1z m955 -1168 c830 -90 1570 -342 2255 -769 528 -329 993 -750
1378 -1245 169 -217 353 -502 479 -739 33 -62 62 -113 64 -113 6 0 56 28 223
124 73 42 134 76 137 76 3 0 18 8 32 18 15 11 56 35 92 54 36 19 98 54 138 78
55 32 76 40 85 31 11 -11 -16 -39 -94 -96 -36 -26 -185 -141 -226 -174 -18
-14 -52 -41 -75 -59 -24 -18 -82 -64 -130 -103 -48 -38 -92 -69 -97 -69 -23 0
-19 -24 20 -112 476 -1075 577 -2290 285 -3431 -211 -823 -610 -1567 -1185
-2212 -175 -195 -462 -462 -686 -636 -635 -493 -1407 -845 -2185 -998 -380
-75 -609 -96 -1035 -95 -353 0 -479 8 -765 50 -975 142 -1894 563 -2660 1219
-103 88 -383 361 -471 460 -293 330 -545 689 -736 1053 -65 123 -65 123 -89
107 -13 -8 -43 -26 -66 -39 -24 -13 -70 -38 -103 -56 -33 -18 -76 -43 -96 -54
-20 -12 -87 -50 -150 -85 -63 -35 -152 -86 -198 -113 -54 -31 -88 -45 -94 -39
-17 17 -29 7 343 290 122 93 189 145 235 184 18 15 35 27 39 27 3 0 15 9 26
20 l21 21 -37 82 c-528 1198 -587 2573 -164 3811 73 214 139 375 244 591 117
242 199 384 351 615 209 315 390 536 664 811 436 435 880 751 1434 1019 622
300 1248 463 1977 514 129 9 682 -3 820 -18z"/>
<path d="M6015 11439 c-60 -4 -133 -10 -161 -14 l-52 -6 5 -37 c2 -20 26 -232
52 -470 27 -238 51 -435 54 -439 4 -3 75 0 159 6 84 6 237 11 341 11 l187 0 0
43 c0 23 3 79 7 125 l6 82 -172 0 -171 0 0 55 0 55 165 0 165 0 0 68 c0 37 3
91 6 120 l7 52 -177 0 -176 0 0 56 0 55 180 -3 180 -3 0 36 c0 20 3 77 6 127
l7 92 -254 -1 c-140 -1 -303 -5 -364 -10z m470 -119 c0 -13 -31 -16 -197 -20
-108 -3 -199 -8 -203 -12 -4 -4 -3 -73 1 -155 l9 -148 183 4 c156 3 182 1 182
-12 0 -12 -31 -16 -181 -22 l-181 -7 7 -142 c4 -77 8 -148 11 -156 3 -13 30
-14 179 -12 150 3 175 2 175 -11 0 -12 -32 -16 -195 -22 -108 -4 -197 -6 -199
-4 -6 7 -55 714 -49 719 7 7 226 17 353 16 86 -1 105 -4 105 -16z"/>
<path d="M6903 11400 c-77 -25 -140 -72 -167 -125 -27 -52 -28 -155 -2 -204
25 -47 99 -125 171 -179 79 -59 135 -113 135 -129 0 -7 -11 -20 -25 -29 -22
-15 -34 -15 -108 -4 -45 7 -111 21 -147 31 -36 10 -66 16 -68 15 -5 -5 -22
-279 -18 -283 8 -8 149 -42 240 -58 116 -20 267 -20 336 1 136 40 210 134 210
267 0 107 -45 179 -208 330 -29 27 -52 53 -52 58 0 5 10 14 23 20 18 8 44 6
108 -9 46 -11 85 -19 86 -18 3 3 53 240 53 252 0 6 -55 26 -122 44 -102 27
-145 34 -253 37 -110 3 -139 0 -192 -17z m320 -131 c58 -12 62 -15 49 -35 -5
-9 -25 -8 -77 3 -123 26 -206 4 -228 -61 -15 -46 10 -85 143 -216 141 -139
176 -194 167 -260 -12 -88 -76 -132 -201 -138 -108 -6 -246 22 -246 49 0 20
-3 20 90 -1 139 -33 255 -15 290 43 11 18 20 50 20 73 0 53 -28 92 -156 214
-157 150 -181 191 -150 264 29 69 149 95 299 65z"/>
<path d="M5565 11389 c-175 -32 -321 -61 -331 -67 -8 -5 0 -55 27 -176 22 -93
37 -171 36 -173 -2 -2 -52 26 -110 62 -59 35 -159 93 -224 127 l-117 62 -173
-59 c-95 -33 -173 -64 -173 -70 0 -6 68 -186 151 -400 83 -215 158 -409 166
-433 8 -24 20 -45 27 -48 15 -5 330 102 334 114 1 5 -18 80 -43 167 -26 86
-44 159 -42 162 7 6 150 -83 285 -179 l113 -79 146 25 c80 14 147 27 149 29 3
3 -50 396 -108 795 -24 171 -14 159 -113 141z m-24 -464 c32 -176 60 -334 64
-352 5 -26 2 -33 -15 -38 -15 -5 -39 8 -93 48 -105 79 -248 175 -362 244 -120
72 -334 187 -340 181 -2 -2 42 -143 99 -313 97 -294 102 -310 83 -318 -11 -4
-21 -6 -22 -5 -1 2 -32 93 -70 203 -37 110 -90 263 -116 339 -51 145 -51 155
-5 156 48 0 453 -235 664 -386 64 -46 118 -80 120 -76 2 7 -100 563 -115 620
-5 21 -2 23 23 20 l28 -3 57 -320z"/>
<path d="M4210 10981 c-162 -75 -290 -140 -290 -147 0 -3 12 -26 26 -52 15
-26 88 -164 164 -307 198 -374 250 -469 258 -477 4 -4 46 12 92 36 47 24 124
61 173 82 48 20 87 43 87 51 0 7 -36 100 -81 206 -129 306 -204 486 -242 577
-19 47 -41 86 -48 87 -8 1 -70 -24 -139 -56z m41 -218 c22 -49 60 -131 85
-183 25 -52 75 -160 113 -240 65 -139 70 -159 35 -160 -5 0 -59 102 -119 228
-60 125 -130 270 -156 322 -42 85 -45 96 -31 108 9 6 20 12 24 12 5 0 27 -39
49 -87z"/>
<path d="M8322 10987 c-51 -19 -97 -62 -122 -114 -44 -94 -13 -210 100 -363
69 -95 91 -139 79 -162 -5 -10 -21 -18 -35 -18 -28 0 -156 61 -240 115 -29 19
-55 31 -58 27 -8 -14 -96 -250 -96 -259 0 -12 132 -90 247 -148 128 -63 209
-85 311 -85 99 0 151 19 209 79 106 108 98 254 -27 457 -69 113 -58 138 40 93
24 -11 59 -31 77 -45 17 -13 34 -24 36 -24 7 0 139 231 135 235 -2 1 -37 25
-78 52 -190 126 -316 173 -458 172 -48 0 -102 -6 -120 -12z m269 -153 c48 -15
122 -48 157 -72 7 -5 10 -16 7 -24 -6 -14 -19 -10 -85 24 -55 29 -95 43 -134
46 -51 4 -57 2 -86 -26 -16 -17 -30 -39 -30 -50 0 -35 29 -105 82 -197 111
-191 130 -263 88 -329 -57 -93 -172 -96 -348 -9 -99 49 -122 67 -105 84 6 6
33 -4 79 -31 75 -44 178 -80 229 -80 44 0 96 38 113 82 20 52 -1 115 -88 263
-39 66 -77 143 -86 171 -13 47 -13 56 1 92 28 69 98 88 206 56z"/>
<path d="M7595 10928 c-5 -16 -55 -215 -55 -221 0 -2 26 -10 58 -17 31 -7 138
-39 236 -71 99 -32 181 -57 183 -56 6 6 84 220 81 222 -14 12 -471 155 -495
155 -2 0 -6 -6 -8 -12z m298 -183 c31 -10 57 -25 57 -32 0 -18 -3 -18 -136 23
-125 39 -140 46 -130 62 6 10 33 3 209 -53z"/>
<path d="M3639 10677 c-73 -46 -144 -89 -156 -97 -25 -16 -49 -127 -82 -378
-11 -79 -21 -146 -23 -148 -2 -2 -31 1 -64 6 -86 13 -303 30 -388 30 l-73 0
-139 -135 -139 -136 165 -157 c90 -86 248 -236 350 -334 l185 -176 83 83 c45
46 109 108 141 137 l58 54 -109 125 c-131 148 -136 142 102 105 85 -14 156
-24 157 -22 1 1 10 80 18 176 9 96 19 178 22 182 3 5 41 -42 84 -104 44 -62
87 -123 97 -136 l17 -23 96 63 c52 35 123 79 157 98 34 19 62 38 62 41 0 12
-467 823 -476 826 -6 2 -71 -34 -145 -80z m214 -428 c103 -166 186 -308 183
-315 -3 -8 -11 -14 -18 -14 -7 0 -92 124 -189 275 l-177 275 -26 -138 c-15
-75 -36 -218 -48 -317 -12 -99 -22 -181 -24 -183 -1 -2 -75 6 -164 17 -88 12
-234 24 -323 27 l-162 6 51 -53 c27 -30 130 -138 227 -240 167 -176 176 -187
159 -202 -17 -16 -30 -4 -223 196 -321 332 -303 311 -279 332 18 16 34 18 178
12 136 -6 292 -20 452 -43 l46 -6 23 183 c33 271 68 450 93 472 11 9 23 17 27
17 3 0 91 -136 194 -301z"/>
<path d="M9040 10397 c-85 -133 -200 -316 -257 -406 -57 -90 -103 -164 -101
-166 2 -1 46 -30 98 -65 126 -84 231 -163 366 -277 62 -51 114 -93 116 -93 3
0 42 43 87 95 l81 94 -135 112 c-74 62 -135 118 -135 123 0 6 13 27 29 46 l29
34 93 -77 c52 -42 113 -92 136 -112 l41 -35 76 84 c42 46 76 88 76 94 0 6 -55
56 -122 113 -68 56 -129 107 -137 115 -12 11 -10 18 13 48 15 20 31 36 36 36
5 0 59 -42 121 -92 62 -51 126 -104 142 -118 l30 -24 84 89 c45 50 82 93 80
97 -12 37 -544 443 -683 521 -7 4 -72 -90 -164 -236z m410 -76 c59 -43 198
-152 242 -190 4 -3 3 -12 -1 -20 -6 -10 -35 8 -116 73 -125 101 -234 180 -240
174 -16 -16 -168 -235 -169 -244 0 -6 53 -52 119 -102 173 -132 181 -140 169
-152 -8 -8 -53 21 -160 104 -81 64 -151 116 -154 116 -5 0 -172 -235 -178
-250 -2 -5 50 -49 115 -99 177 -136 179 -139 166 -152 -9 -9 -34 6 -105 63
-51 41 -126 99 -166 127 -44 32 -70 57 -65 64 3 7 33 50 65 97 33 47 122 176
199 288 l141 202 31 -22 c18 -12 66 -46 107 -77z"/>
<path d="M6035 10325 c-248 -23 -574 -86 -760 -146 -175 -56 -331 -112 -410
-148 -236 -108 -281 -130 -450 -226 -82 -46 -293 -188 -396 -267 -218 -166
-442 -376 -589 -553 -41 -49 -79 -94 -86 -100 -6 -5 -24 -28 -40 -50 -16 -22
-31 -42 -34 -45 -3 -3 -33 -43 -66 -90 -178 -251 -292 -454 -431 -770 -22 -48
-96 -248 -117 -315 -7 -22 -18 -56 -24 -75 -20 -61 -84 -324 -88 -360 -3 -19
-7 -42 -10 -52 -29 -96 -64 -485 -64 -728 0 -342 38 -646 121 -975 34 -136 36
-141 84 -284 19 -57 35 -105 35 -107 0 -2 53 36 118 86 64 49 164 125 222 169
58 44 128 98 155 120 28 22 61 49 74 58 13 10 37 30 55 44 17 14 87 68 155
120 223 169 216 163 214 190 -1 13 -7 51 -13 84 -7 33 -14 71 -16 85 -22 121
-35 302 -30 445 3 88 6 170 6 183 0 29 27 202 41 267 5 28 13 67 16 88 3 20 9
40 14 43 5 3 9 16 9 30 0 13 4 32 9 42 5 9 19 51 32 92 12 41 26 80 30 85 3 6
16 35 27 65 73 193 215 442 341 600 20 25 41 51 46 58 71 88 296 313 394 392
203 164 491 333 719 421 12 5 32 13 45 18 31 14 131 46 202 66 33 9 71 21 85
25 14 5 41 11 60 15 19 4 53 11 75 16 55 13 137 26 285 45 134 17 459 14 590
-5 420 -61 613 -106 743 -172 22 -10 43 -19 49 -19 6 0 61 -25 123 -55 63 -30
118 -55 124 -55 21 0 11 -29 -11 -36 -13 -3 -30 -12 -38 -19 -8 -7 -78 -45
-155 -85 -77 -40 -185 -96 -240 -125 -55 -29 -143 -75 -195 -102 -52 -28 -124
-66 -160 -85 -36 -20 -128 -68 -204 -107 -77 -40 -145 -75 -150 -80 -6 -5 -85
-47 -176 -93 -214 -111 -429 -223 -505 -265 -33 -18 -125 -65 -205 -105 -80
-40 -147 -76 -150 -79 -3 -4 -75 -42 -160 -85 -85 -44 -157 -81 -160 -84 -3
-3 -41 -24 -85 -47 -179 -92 -400 -209 -432 -229 -63 -39 -56 11 8 56 27 19
87 63 132 96 191 142 558 414 637 471 104 76 133 97 237 176 126 96 323 241
341 252 9 6 31 21 49 35 18 14 50 39 73 55 23 17 55 41 73 56 18 14 84 63 147
109 109 79 205 149 368 269 39 30 72 58 72 62 0 5 -10 11 -22 13 -226 43 -563
46 -788 6 -186 -33 -343 -74 -433 -113 -18 -8 -61 -27 -97 -42 -460 -195 -831
-521 -1099 -967 -45 -76 -71 -128 -146 -293 -35 -75 -110 -318 -127 -410 -5
-27 -13 -75 -19 -105 -47 -260 -39 -638 20 -880 6 -25 14 -62 18 -83 3 -21 10
-40 14 -43 5 -3 9 -13 9 -22 0 -21 46 -169 60 -194 6 -10 10 -23 10 -29 0 -6
15 -43 34 -82 18 -40 43 -93 55 -119 11 -26 26 -50 31 -53 6 -4 36 8 68 25 31
18 86 48 122 67 36 20 86 49 113 64 26 16 49 29 51 29 3 0 39 20 80 45 42 25
78 45 80 45 2 0 42 23 90 50 48 28 89 50 92 50 2 0 21 10 42 23 20 13 62 37
92 54 30 16 76 42 103 57 26 14 68 38 95 52 65 37 197 111 365 205 38 22 71
39 74 39 3 0 17 8 31 19 15 10 61 36 102 58 41 22 94 51 117 66 24 15 47 27
53 27 28 0 -1 -36 -107 -130 -65 -58 -145 -130 -178 -160 -34 -30 -112 -100
-175 -155 -62 -55 -150 -134 -195 -175 -46 -41 -126 -113 -180 -160 -54 -47
-112 -98 -129 -115 -18 -16 -52 -48 -77 -70 -159 -141 -220 -196 -269 -241
-30 -28 -138 -124 -240 -215 -102 -90 -191 -169 -198 -176 -12 -12 -743 -377
-999 -499 -73 -35 -133 -67 -133 -71 0 -26 324 -413 346 -413 7 0 146 138 310
307 610 628 543 565 684 642 202 111 223 123 255 141 17 10 64 36 105 58 41
22 134 72 205 112 72 40 159 88 195 108 36 19 94 52 130 72 36 20 106 59 155
85 50 27 106 58 125 69 19 12 49 28 65 36 17 8 41 22 55 31 14 9 65 37 114 64
49 26 110 59 135 74 25 14 60 33 76 41 17 8 41 22 55 31 14 9 63 37 110 61 47
25 121 66 165 90 44 25 112 62 150 83 39 21 99 54 135 74 36 21 79 43 95 51
17 8 49 27 71 43 23 15 45 27 49 27 4 0 30 14 57 30 27 17 53 28 59 25 14 -9
11 -33 -5 -42 -17 -9 -117 -89 -191 -153 -29 -25 -76 -63 -104 -85 -29 -22
-76 -60 -104 -85 -29 -25 -120 -99 -201 -165 -82 -66 -197 -159 -255 -207
-137 -113 -212 -174 -270 -220 -73 -59 -225 -185 -306 -253 -26 -22 -76 -62
-110 -90 -80 -65 -295 -240 -354 -288 -25 -20 -62 -49 -81 -64 -19 -15 -56
-45 -82 -68 -108 -94 -145 -122 -178 -137 -19 -9 -116 -53 -215 -98 -99 -45
-213 -97 -252 -116 -40 -19 -75 -34 -77 -34 -3 0 -47 -20 -98 -44 -178 -83
-270 -126 -273 -126 -2 0 -45 -20 -97 -44 -154 -72 -186 -86 -196 -86 -5 0
-16 -7 -23 -16 -12 -15 -9 -21 26 -51 193 -169 250 -217 329 -277 297 -227
575 -384 945 -536 45 -18 202 -73 316 -109 48 -16 304 -79 370 -91 504 -95
1041 -93 1540 5 234 46 555 144 745 227 231 102 442 213 599 315 85 56 251
172 261 183 3 3 23 18 45 35 22 16 42 32 45 35 3 3 66 58 140 121 372 319 745
817 945 1260 26 57 55 122 65 144 63 136 150 398 200 601 133 538 146 1161 36
1714 -20 102 -45 204 -96 385 -13 47 -62 188 -71 207 -10 19 2 26 -168 -105
-30 -23 -69 -53 -87 -67 -18 -14 -82 -63 -141 -110 -122 -97 -181 -142 -308
-240 -49 -38 -130 -101 -180 -140 -49 -39 -105 -81 -123 -93 -36 -24 -37 -36
-12 -157 49 -235 58 -550 24 -795 -9 -60 -18 -126 -21 -145 -2 -19 -8 -44 -13
-55 -5 -11 -11 -33 -14 -50 -9 -53 -17 -90 -26 -110 -4 -11 -16 -49 -25 -85
-9 -36 -20 -69 -24 -75 -4 -5 -13 -28 -20 -50 -24 -74 -160 -356 -187 -386 -8
-8 -14 -19 -14 -24 0 -4 -28 -49 -61 -99 -222 -329 -518 -609 -864 -818 -60
-35 -248 -132 -315 -161 -19 -8 -55 -23 -80 -34 -25 -11 -72 -27 -105 -37 -33
-10 -68 -22 -77 -27 -10 -5 -27 -9 -37 -9 -11 0 -23 -4 -26 -10 -3 -5 -21 -10
-40 -10 -19 0 -36 -4 -39 -9 -3 -5 -18 -11 -33 -14 -16 -4 -50 -11 -78 -17
-239 -52 -423 -70 -675 -65 -210 5 -400 26 -555 63 -22 6 -56 13 -75 17 -19 4
-60 15 -90 25 -30 10 -86 27 -125 39 -116 37 -312 119 -404 170 -31 16 -20 31
46 65 37 20 79 42 93 50 26 16 161 89 315 171 50 26 95 51 100 55 6 4 48 27
95 51 47 23 92 48 100 54 8 7 58 35 110 62 52 27 106 56 120 65 14 9 68 38
120 65 52 28 115 61 140 75 171 96 483 266 690 375 47 25 90 49 95 53 6 4 50
29 100 54 49 26 94 51 100 55 5 5 44 25 85 46 41 22 86 46 100 55 14 10 84 48
155 85 72 37 135 71 140 75 6 4 44 26 85 48 41 22 104 56 140 76 71 39 90 43
90 22 0 -14 -29 -37 -281 -227 -69 -52 -137 -103 -152 -114 -14 -11 -87 -67
-163 -125 -75 -58 -146 -112 -158 -120 -46 -33 -162 -121 -181 -138 -11 -10
-91 -72 -179 -138 -87 -65 -175 -131 -195 -146 -20 -15 -50 -38 -67 -50 -17
-13 -56 -42 -85 -65 -70 -54 -377 -287 -546 -414 -133 -100 -150 -115 -139
-127 10 -9 101 -20 270 -34 154 -12 413 -1 536 22 30 6 73 13 95 17 22 3 44 9
49 14 6 5 18 9 29 9 27 0 196 49 244 71 24 10 47 19 53 19 6 0 18 4 28 10 9 5
49 24 87 41 83 36 107 48 160 79 22 13 49 28 60 34 101 55 333 235 440 341
103 102 217 241 303 369 120 178 178 295 288 581 9 24 33 118 40 160 3 17 9
39 14 50 4 11 13 49 18 85 6 36 17 99 24 140 15 92 15 522 0 600 -5 30 -15 89
-22 130 -7 41 -15 84 -20 95 -4 11 -15 54 -24 95 -22 94 -34 134 -58 187 -10
24 -18 47 -18 52 0 5 -8 26 -18 48 -11 21 -38 77 -60 126 -26 54 -48 87 -57
87 -9 0 -60 -23 -113 -51 -53 -29 -131 -70 -172 -92 -41 -22 -97 -52 -125 -67
-27 -15 -104 -56 -170 -90 -66 -34 -124 -66 -130 -70 -5 -4 -72 -39 -147 -78
-75 -39 -147 -77 -160 -85 -13 -8 -76 -42 -141 -75 -65 -33 -123 -65 -130 -70
-7 -5 -73 -41 -147 -80 -74 -38 -173 -91 -220 -116 -47 -25 -91 -46 -97 -46
-29 0 -9 31 50 81 34 30 69 61 77 69 8 9 44 40 80 69 36 30 67 57 70 60 3 3
39 35 80 71 41 36 77 67 80 70 14 14 177 156 259 225 52 44 120 103 151 130
31 28 101 88 155 135 55 47 127 110 161 140 34 30 96 84 138 120 43 36 107 92
142 124 36 33 80 70 97 83 18 13 37 29 42 36 6 7 37 36 71 64 61 54 137 94
939 495 176 88 322 162 324 164 4 4 -96 144 -113 159 -7 6 -36 39 -66 75 -29
36 -81 95 -114 133 l-60 67 -145 -147 c-79 -82 -285 -290 -456 -464 -340 -345
-312 -323 -590 -469 -55 -29 -104 -56 -110 -60 -5 -4 -55 -31 -110 -60 -55
-29 -104 -56 -110 -60 -5 -4 -53 -30 -105 -57 -52 -27 -106 -56 -120 -65 -24
-15 -63 -36 -280 -151 -52 -28 -108 -58 -125 -68 -16 -10 -55 -31 -85 -47 -30
-16 -80 -42 -110 -59 -30 -17 -93 -50 -140 -74 -47 -24 -87 -47 -90 -51 -3 -3
-59 -34 -124 -67 -65 -34 -124 -65 -130 -70 -6 -4 -51 -30 -101 -56 -49 -26
-112 -60 -140 -75 -27 -15 -79 -43 -115 -62 -72 -39 -161 -88 -230 -126 -25
-14 -58 -32 -75 -40 -16 -8 -38 -22 -48 -30 -14 -13 -20 -13 -30 -3 -9 10 -5
19 23 43 39 34 351 286 414 335 50 38 73 57 382 308 136 110 261 211 279 225
18 14 50 38 71 55 22 16 57 45 80 65 22 19 64 53 94 75 58 44 134 106 165 133
11 10 56 47 100 82 429 342 447 357 498 401 23 20 80 54 127 76 47 22 129 61
183 87 54 25 100 46 103 46 2 0 39 16 82 36 92 43 162 75 217 99 47 21 115 52
278 129 65 31 122 56 127 56 4 0 32 12 61 28 53 27 110 53 197 88 23 10 42 23
42 30 0 7 -48 54 -107 106 -58 51 -129 113 -157 138 -28 25 -67 56 -86 70 -19
13 -37 27 -40 30 -20 23 -309 217 -395 265 -27 15 -84 46 -125 69 -42 23 -123
64 -180 90 -58 27 -123 57 -145 67 -89 41 -307 119 -430 153 -33 9 -82 23
-110 31 -379 106 -937 150 -1370 110z m1153 -7031 c26 -18 28 -46 6 -68 -25
-26 -42 -19 -46 17 -3 35 -26 45 -74 33 -62 -16 -140 -127 -159 -226 l-6 -35
33 37 c43 49 108 78 177 78 47 0 57 -4 87 -34 29 -29 34 -41 34 -82 -1 -92
-60 -173 -159 -217 -54 -24 -135 -27 -175 -6 -90 44 -104 175 -35 312 75 146
239 246 317 191z m-1276 -56 c-11 -18 -51 -89 -89 -158 -39 -69 -80 -141 -91
-160 -32 -52 -29 -67 18 -80 22 -6 38 -15 35 -20 -3 -5 -11 -7 -18 -5 -7 2
-65 18 -129 35 -125 34 -152 52 -65 43 l52 -5 41 63 c71 109 144 242 138 251
-3 5 -30 6 -60 2 -30 -3 -54 -2 -54 3 0 9 177 59 218 62 l24 1 -20 -32z m456
-38 c40 -23 62 -54 62 -90 0 -30 -57 -87 -105 -106 l-45 -17 38 -29 c48 -38
52 -45 52 -91 0 -75 -78 -120 -205 -120 -162 0 -269 75 -243 170 10 39 68 76
145 94 l52 12 -24 29 c-14 17 -25 42 -25 58 0 37 48 93 92 108 52 18 159 9
206 -18z m312 -142 c-17 -84 -37 -178 -44 -209 -17 -73 -8 -93 40 -84 34 6 48
-8 18 -19 -28 -11 -254 -7 -254 4 0 6 6 10 13 9 6 -1 27 -1 45 0 41 1 49 18
91 197 29 125 37 174 26 174 -2 0 -28 -9 -56 -20 -28 -12 -54 -18 -58 -14 -3
4 -1 9 6 11 7 2 54 31 105 63 51 32 94 54 96 50 2 -5 -11 -78 -28 -162z"/>
<path d="M7010 3077 c-112 -59 -143 -260 -42 -280 16 -3 45 -2 65 4 81 22 127
91 127 189 0 51 -4 65 -25 85 -30 31 -69 32 -125 2z"/>
<path d="M6163 3191 c-27 -17 -33 -27 -33 -55 0 -28 9 -42 51 -80 55 -50 81
-56 129 -31 32 16 60 61 60 94 0 12 -13 35 -29 53 -24 27 -36 32 -87 35 -47 3
-66 0 -91 -16z"/>
<path d="M6104 3000 c-40 -9 -100 -46 -108 -66 -3 -9 -6 -30 -6 -48 0 -89 151
-153 254 -108 74 33 81 87 20 143 -27 23 -40 33 -106 73 -15 8 -34 11 -54 6z"/>
<path d="M10645 9023 c-138 -77 -283 -156 -518 -283 -125 -68 -226 -126 -225
-129 20 -45 161 -321 164 -321 2 0 151 67 331 149 181 81 376 169 434 196
l107 47 -25 57 c-56 126 -165 331 -176 330 -7 0 -48 -21 -92 -46z m105 -215
c0 -4 -4 -8 -10 -8 -5 0 -151 -71 -325 -157 -262 -131 -318 -155 -325 -143 -5
8 -10 17 -10 20 0 3 145 78 323 167 286 143 323 160 335 145 6 -9 12 -19 12
-24z"/>
<path d="M1749 8683 c-39 -103 -185 -611 -177 -618 7 -7 911 -206 920 -203 6
2 28 69 50 148 22 80 60 207 85 283 24 76 43 140 41 142 -2 2 -134 45 -215 69
-21 7 -25 -1 -63 -121 -22 -70 -42 -133 -45 -140 -3 -8 -16 -8 -51 3 -26 8
-49 15 -50 17 -2 2 14 59 36 128 22 68 40 127 40 131 0 7 -221 82 -224 76 -1
-2 -21 -64 -45 -139 l-44 -136 -45 13 c-25 8 -47 16 -49 18 -2 2 16 66 41 142
l44 139 -116 37 c-64 21 -118 38 -120 38 -1 0 -7 -12 -13 -27z m111 -128 c0
-3 -21 -75 -46 -160 -26 -86 -45 -157 -43 -159 6 -5 293 -75 296 -72 2 1 22
66 45 144 33 113 46 142 60 142 9 0 15 -6 13 -12 -19 -56 -85 -281 -83 -283 6
-5 276 -75 289 -75 10 0 29 49 58 145 41 137 52 158 66 135 4 -7 -79 -313 -90
-328 -1 -2 -540 129 -652 159 -24 7 -43 17 -43 24 0 13 48 182 81 283 13 37
26 62 35 62 8 0 14 -2 14 -5z"/>
<path d="M9678 8482 c-151 -121 -226 -182 -267 -217 -78 -66 -134 -113 -173
-142 -20 -15 -90 -73 -156 -128 -66 -55 -165 -137 -221 -183 -55 -46 -103 -88
-106 -93 -6 -9 20 -62 40 -85 6 -6 23 -38 39 -72 16 -34 34 -62 39 -62 5 0 50
24 101 54 121 71 178 103 245 138 31 16 60 33 66 38 5 4 30 19 55 32 25 14 63
35 85 48 22 13 61 35 87 49 128 71 238 134 283 161 28 17 71 41 97 53 26 12
50 29 53 37 4 8 -10 46 -30 85 -53 101 -153 276 -173 302 l-17 22 -47 -37z"/>
<path d="M10787 8509 c-122 -29 -182 -113 -227 -322 -26 -116 -37 -144 -61
-150 -42 -11 -79 58 -113 215 -14 65 -20 76 -34 71 -9 -4 -66 -28 -127 -54
-82 -36 -111 -53 -113 -68 -6 -36 57 -253 97 -336 78 -159 165 -225 301 -225
101 0 164 30 226 109 36 45 52 81 85 184 27 85 45 127 55 127 21 0 53 -58 66
-123 7 -32 17 -56 23 -54 5 2 60 19 120 36 61 18 114 37 119 41 23 23 -57 291
-113 377 -90 139 -195 199 -304 172z m164 -228 c43 -45 74 -106 93 -183 5 -23
3 -28 -13 -28 -14 0 -22 12 -30 46 -27 108 -78 169 -143 169 -61 0 -87 -37
-138 -191 -24 -71 -52 -147 -62 -169 -46 -93 -123 -138 -195 -115 -76 26 -135
102 -172 224 -24 79 -26 106 -8 106 8 0 22 -32 36 -77 27 -92 59 -151 103
-188 28 -24 39 -27 85 -23 87 7 110 40 178 255 58 181 90 221 179 222 35 1 46
-5 87 -48z"/>
<path d="M2240 7807 c0 -2 -13 -68 -30 -145 -16 -78 -30 -150 -30 -160 0 -16
16 -22 106 -36 58 -10 111 -15 118 -13 7 3 16 25 20 49 3 23 17 91 30 150 21
97 22 108 7 113 -16 4 -209 45 -217 45 -2 0 -4 -2 -4 -3z m99 -186 c-8 -41
-16 -61 -26 -61 -11 0 -13 10 -7 48 10 67 22 98 35 85 7 -7 7 -29 -2 -72z"/>
<path d="M11249 7746 c-2 -2 -206 -57 -454 -122 -247 -65 -451 -119 -453 -120
-1 0 11 -55 27 -122 16 -66 33 -141 36 -166 4 -25 9 -46 11 -46 2 0 74 14 160
31 85 17 158 29 161 25 3 -3 -30 -45 -73 -92 -43 -48 -96 -106 -117 -130 l-38
-43 23 -12 c56 -28 278 -164 278 -169 0 -3 -72 -13 -161 -22 -88 -8 -162 -18
-165 -21 -2 -2 0 -53 6 -113 5 -60 10 -135 10 -168 l0 -59 83 6 c45 4 262 12
481 19 l399 12 -7 140 c-10 210 1 188 -139 286 -67 47 -156 106 -199 133 l-77
47 102 123 c147 176 203 255 199 280 -4 26 -48 215 -63 270 -9 33 -18 44 -30
33z m-41 -239 c5 -25 -159 -240 -315 -414 l-75 -83 48 -27 c74 -44 312 -203
397 -266 92 -68 100 -93 35 -101 -24 -3 -155 -12 -293 -21 -137 -8 -283 -18
-322 -21 -68 -6 -73 -5 -73 14 0 24 9 25 325 47 127 9 252 20 279 23 l49 7
-116 83 c-97 69 -189 129 -365 239 -22 14 -21 15 71 121 146 166 292 357 276
359 -8 1 -151 -28 -319 -66 -168 -37 -306 -68 -307 -67 0 1 -3 10 -5 20 -3 17
30 27 327 97 182 42 341 76 355 76 15 -1 26 -9 28 -20z"/>
<path d="M1767 7500 c-128 -23 -240 -115 -306 -253 -63 -128 -85 -247 -107
-558 l-6 -95 408 -12 c225 -7 441 -15 479 -18 l71 -6 12 164 c18 234 16 341
-8 432 -33 131 -90 213 -190 278 -88 56 -247 87 -353 68z m193 -171 c145 -33
236 -154 254 -339 6 -61 -7 -256 -18 -267 -4 -5 -534 22 -653 33 l-63 6 0 43
c0 61 19 190 36 251 22 76 47 123 94 177 91 103 193 131 350 96z"/>
<path d="M1748 7286 c-54 -19 -81 -39 -121 -88 -43 -53 -60 -87 -81 -160 -14
-50 -38 -229 -31 -236 6 -6 647 -43 653 -37 4 4 7 73 7 154 l0 148 -35 69
c-41 79 -94 126 -172 149 -63 18 -170 19 -220 1z m211 -141 c65 -33 101 -104
101 -198 0 -48 -1 -48 -27 -43 -16 3 -108 10 -205 17 -201 14 -191 8 -162 96
36 108 106 158 207 149 32 -3 70 -12 86 -21z"/>
<path d="M2060 6305 l0 -165 120 0 120 0 0 165 0 165 -120 0 -120 0 0 -165z
m135 -1 c0 -55 -3 -69 -15 -69 -11 0 -16 15 -18 59 -3 66 2 90 21 83 8 -2 12
-26 12 -73z"/>
<path d="M10699 6293 l-186 -3 -6 -122 c-4 -67 -7 -147 -7 -179 l0 -57 63 -6
c34 -3 220 -15 412 -26 193 -11 380 -23 418 -26 l67 -6 0 58 c0 33 3 130 7
217 l6 157 -294 -2 c-162 -2 -378 -4 -480 -5z m599 -179 c44 -5 52 -9 52 -26
0 -20 -2 -20 -337 -14 -186 4 -350 9 -365 12 -19 4 -28 12 -28 24 0 17 14 18
313 14 171 -3 336 -7 365 -10z"/>
<path d="M1949 6071 c-47 -10 -100 -43 -138 -87 l-31 -34 -55 31 c-51 28 -62
31 -128 27 -84 -4 -133 -31 -179 -99 -60 -90 -68 -194 -39 -479 28 -262 26
-253 65 -247 17 3 230 33 474 68 l444 64 -5 25 c-3 14 -13 102 -21 195 -29
306 -45 367 -115 448 -60 68 -181 107 -272 88z m110 -161 c62 -18 121 -92 136
-170 7 -38 33 -284 30 -287 -1 -3 -620 -79 -685 -85 -34 -3 -35 -2 -42 42 -15
105 -20 276 -9 318 14 50 59 105 101 122 41 17 125 8 158 -17 15 -11 36 -36
48 -57 l21 -36 12 40 c6 22 26 57 44 77 51 58 110 75 186 53z"/>
<path d="M1933 5866 c-37 -17 -68 -62 -84 -121 -11 -39 1 -278 14 -292 5 -4
316 26 324 32 1 0 -4 60 -11 131 -15 138 -32 188 -79 232 -32 30 -117 39 -164
18z m110 -127 c28 -13 44 -42 53 -98 l6 -38 -47 -6 c-26 -4 -66 -7 -88 -7
l-39 0 4 57 c4 46 10 61 32 80 30 26 44 28 79 12z"/>
<path d="M1595 5804 c-78 -40 -92 -89 -76 -266 6 -67 13 -123 15 -125 3 -3
289 27 292 31 1 0 -4 58 -11 128 -8 81 -20 141 -31 165 -36 73 -120 103 -189
67z m113 -151 c6 -9 12 -33 12 -54 l0 -36 -57 -6 c-31 -3 -60 -4 -65 -1 -4 3
-8 21 -8 40 0 48 40 89 78 79 15 -3 33 -13 40 -22z"/>
<path d="M10490 5812 c0 -16 -31 -269 -36 -298 l-6 -30 159 -23 c87 -13 167
-27 177 -31 21 -7 -49 -53 -264 -170 -63 -35 -116 -64 -118 -65 -8 -7 -69
-271 -63 -277 3 -3 132 -40 286 -81 154 -42 358 -97 453 -123 94 -26 175 -44
178 -41 13 12 99 376 91 383 -2 2 -73 18 -158 34 -206 41 -204 40 -143 75 27
15 119 75 205 132 177 118 160 92 179 273 6 58 12 119 14 137 l4 31 -66 6
c-37 4 -233 20 -437 36 -203 16 -389 32 -412 35 -24 2 -43 1 -43 -3z m820
-262 c0 -22 -25 -42 -182 -146 -212 -140 -299 -193 -457 -277 -134 -71 -149
-58 134 -122 110 -25 242 -56 294 -67 89 -21 116 -37 94 -59 -8 -8 -80 7 -578
126 -141 33 -134 31 -129 52 3 11 43 39 97 68 205 108 632 372 650 402 5 7
-576 84 -630 83 -7 0 -13 10 -13 23 l0 22 360 -40 360 -40 0 -25z"/>
<path d="M3860 5279 c-47 -29 -284 -159 -291 -159 -5 0 -9 -4 -9 -9 0 -5 -8
-11 -17 -14 -18 -6 -118 -61 -163 -89 -14 -8 -50 -29 -80 -45 -30 -17 -84 -47
-118 -67 -35 -20 -66 -36 -69 -36 -3 0 -17 -8 -31 -18 -24 -17 -58 -36 -185
-106 -34 -19 -37 -24 -32 -50 5 -30 170 -334 195 -359 6 -7 186 130 374 285
22 18 137 111 255 206 119 95 238 193 266 217 l50 45 -35 62 c-19 35 -43 82
-54 106 -20 43 -29 48 -56 31z"/>
<path d="M6049 2347 c-299 -181 -291 -176 -341 -241 -43 -56 -107 -112 -219
-194 -96 -69 -101 -90 -35 -139 61 -47 84 -43 125 18 40 58 133 145 186 173
36 19 36 19 79 -1 24 -12 68 -41 97 -65 30 -24 77 -57 104 -72 61 -35 245
-178 242 -188 -1 -4 -58 -57 -127 -118 -89 -78 -147 -121 -200 -146 -41 -20
-83 -44 -92 -52 -24 -20 -23 -63 3 -96 19 -24 27 -26 89 -26 73 0 93 10 110
56 5 12 35 44 68 71 115 95 263 208 272 208 11 0 239 -175 298 -229 23 -21 42
-44 42 -51 0 -6 10 -21 23 -33 19 -18 35 -22 89 -22 60 0 69 3 87 26 26 33 27
76 4 96 -10 9 -47 29 -83 46 -36 16 -99 58 -141 93 -119 100 -204 178 -199
181 3 2 39 31 80 64 77 62 146 110 190 132 14 7 44 30 67 50 23 20 66 51 97
69 l55 32 58 -38 c59 -39 114 -93 172 -168 40 -52 63 -54 114 -12 29 24 37 38
37 62 0 28 -9 38 -69 80 -107 75 -187 147 -226 203 -20 29 -54 61 -78 74 -23
13 -85 51 -137 85 -235 153 -351 200 -350 143 1 -18 23 -38 100 -87 54 -35
130 -93 170 -129 l71 -65 -43 -44 c-23 -24 -69 -63 -102 -86 -33 -23 -87 -69
-121 -102 -66 -65 -190 -165 -203 -165 -14 0 -207 156 -231 186 -12 16 -41 40
-63 55 -22 15 -72 55 -111 90 l-70 63 71 66 c40 37 117 95 172 131 76 49 99
69 100 87 0 19 -5 22 -38 22 -30 0 -70 -19 -193 -93z"/>
<path d="M3420 2256 c0 -21 15 -32 103 -76 213 -108 356 -159 777 -281 135
-39 272 -79 305 -89 l60 -18 -48 -7 c-27 -4 -107 -4 -178 0 l-129 7 0 -29 c0
-27 8 -33 103 -81 148 -74 142 -73 269 -61 185 17 214 45 176 167 -22 72 -53
107 -132 145 -93 46 -169 68 -691 202 -71 18 -226 58 -343 89 -244 64 -272 68
-272 32z"/>
<path d="M9140 2234 c-169 -46 -383 -102 -665 -174 -406 -104 -496 -150 -533
-273 -38 -121 -8 -149 176 -166 127 -12 121 -13 270 61 94 48 102 54 102 81
l0 29 -129 -7 c-71 -4 -151 -4 -178 0 l-48 7 60 18 c33 10 170 50 305 89 421
122 564 173 778 281 87 44 102 55 102 76 0 21 -4 24 -37 23 -21 -1 -112 -21
-203 -45z"/>
</g>
</svg>
